<?xml version="1.0" standalone="no"?>
<!DOCTYPE svg PUBLIC "-//W3C//DTD SVG 20010904//EN"
 "http://www.w3.org/TR/2001/REC-SVG-20010904/DTD/svg10.dtd">
<svg version="1.0" xmlns="http://www.w3.org/2000/svg"
 width="164.000000pt" height="164.000000pt" viewBox="0 0 164.000000 164.000000"
 preserveAspectRatio="xMidYMid meet">
<metadata>
Created by potrace 1.14, written by Peter Selinger 2001-2017
</metadata>
<g transform="translate(0.000000,164.000000) scale(0.100000,-0.100000)"
fill="#000000" stroke="none">
<path d="M364 1417 c-8 -4 -14 -17 -14 -27 0 -15 -7 -20 -29 -20 -36 0 -38 -7
-46 -120 -3 -47 -7 -105 -10 -130 -2 -25 -7 -81 -10 -125 -3 -44 -8 -103 -10
-131 -6 -68 -12 -151 -20 -259 -4 -49 -8 -106 -10 -125 -2 -19 -7 -83 -10
-141 -6 -98 -5 -107 12 -110 27 -7 1212 -3 1219 3 8 8 8 33 0 127 -4 46 -9
105 -11 130 -5 65 -15 187 -21 246 -3 28 -6 75 -9 105 -8 116 -16 217 -20 255
-2 22 -7 83 -11 135 -4 52 -8 102 -10 110 -1 8 -3 18 -3 22 -1 4 -15 8 -33 10
-21 2 -32 9 -34 21 -1 11 -5 22 -9 25 -9 9 -894 8 -911 -1z"/>
</g>
</svg>
